
<svg width="23px" height="18px" viewBox="0 0 23 30" version="1.1" xmlns="http://www.w3.org/2000/svg" xmlns:xlink="http://www.w3.org/1999/xlink">
    <g id="Symbols" stroke="none" stroke-width="1" fill="none" fill-rule="evenodd">
        <g id="Rowing" transform="translate(-5.000000, -1.000000)" fill="#11A9B2">
            <path d="M10.9558824,18.6086957 L5,24.4782609 L6.98529412,26.4347826 L11.6176471,21.8695652 L14.2647059,21.8695652 L10.9558824,18.6086957 Z M19.5588235,1 C18.1029412,1 16.9117647,2.17391304 16.9117647,3.60869565 C16.9117647,5.04347826 18.1029412,6.2173913 19.5588235,6.2173913 C21.0147059,6.2173913 22.2058824,5.04347826 22.2058824,3.60869565 C22.2058824,2.17391304 21.0147059,1 19.5588235,1 Z M27.5,27.1 L23.5294118,31 L19.5720588,27.073913 L19.5720588,25.1304348 L10.175,15.8826087 C9.76470588,15.9478261 9.36764706,15.973913 8.97058824,15.973913 L8.97058824,13.1565217 C11.1676471,13.1956522 13.7485294,12.0217391 15.1514706,10.4956522 L17.0044118,8.47391304 C17.2558824,8.2 17.5735294,7.97826087 17.9176471,7.82173913 C18.3014706,7.63913043 18.7382353,7.52173913 19.1882353,7.52173913 L19.2279412,7.52173913 C20.8691176,7.53478261 22.2058824,8.85217391 22.2058824,10.4695652 L22.2058824,17.9695652 C22.2058824,19.0652174 21.7426471,20.0695652 20.9882353,20.7869565 L16.25,16.1173913 L16.25,13.1565217 C15.4161765,13.8347826 14.3573529,14.4869565 13.2191176,14.9695652 L21.5441176,23.173913 L23.5294118,23.173913 L27.5,27.1 L27.5,27.1 Z" id="Shape"></path>
        </g>
    </g>
</svg>